<svg width="32" height="20" viewBox="0 0 32 20" fill="none" xmlns="http://www.w3.org/2000/svg">
<path id="Arriving. icon Copy" fill-rule="evenodd" clip-rule="evenodd" d="M32 1.33404V15.9995C32 16.5948 31.6054 17.1179 31.033 17.2814L21.6996 19.9479C20.8479 20.1912 20 19.5517 20 18.666H17.3333C16.597 18.666 16 18.0691 16 17.3327V13.3331C16 12.5967 16.597 11.9998 17.3333 11.9998C18.0697 11.9998 18.6667 12.5967 18.6667 13.3331V15.9995H20V4.00049C20 3.40523 20.3946 2.88209 20.967 2.71856L21.1466 2.66726H18.6667V5.33371C18.6667 6.07003 18.0697 6.66694 17.3333 6.66694C16.597 6.66694 16 6.07003 16 5.33371V1.33404C16 0.597716 16.597 0.000811213 17.3333 0.000811213H30.6229C30.8378 -0.00673005 31.0454 0.0385657 31.2314 0.125934C31.3395 0.176574 31.4398 0.241313 31.5298 0.317784C31.8144 0.559195 32 0.919669 32 1.33404ZM29.3333 3.10153L22.6667 5.00614V16.8985L29.3333 14.9939V3.10153ZM0.390524 8.38984C0.130174 8.65017 0 8.99137 0 9.33258C0 9.67378 0.130174 10.015 0.390524 10.2753L4.39052 14.275C4.91122 14.7956 5.75544 14.7956 6.27614 14.275C6.79684 13.7543 6.79684 12.9102 6.27614 12.3895L4.55228 10.6658H12C12.7364 10.6658 13.3333 10.0689 13.3333 9.33258C13.3333 8.59626 12.7364 7.99935 12 7.99935H4.55228L6.27614 6.27563C6.79684 5.75498 6.79684 4.91082 6.27614 4.39017C5.75544 3.86951 4.91122 3.86951 4.39052 4.39017L0.390524 8.38984Z" fill="white"/>
</svg>
