<svg width="32" height="20" viewBox="0 0 32 20" fill="none" xmlns="http://www.w3.org/2000/svg">
<path id="Arriving. icon" fill-rule="evenodd" clip-rule="evenodd" d="M32 1.33404V15.9995C32 16.5948 31.6054 17.1179 31.033 17.2814L21.6996 19.9479C20.8479 20.1912 20 19.5517 20 18.666H17.3333C16.597 18.666 16 18.0691 16 17.3327V13.3331C16 12.5967 16.597 11.9998 17.3333 11.9998C18.0697 11.9998 18.6667 12.5967 18.6667 13.3331V15.9995H20V4.00049C20 3.40523 20.3946 2.88209 20.967 2.71856L21.1466 2.66726H18.6667V5.33371C18.6667 6.07003 18.0697 6.66694 17.3333 6.66694C16.597 6.66694 16 6.07003 16 5.33371V1.33404C16 0.597716 16.597 0.000811213 17.3333 0.000811213H30.6229C30.8378 -0.00673005 31.0454 0.0385657 31.2314 0.125934C31.3395 0.176574 31.4398 0.241313 31.5298 0.317784C31.8144 0.559195 32 0.919669 32 1.33404ZM29.3333 3.10153L22.6667 5.00614V16.8985L29.3333 14.9939V3.10153ZM13.3333 9.33258C13.3333 8.99137 13.2032 8.65017 12.9428 8.38984L8.94281 4.39017C8.42211 3.86951 7.57789 3.86951 7.05719 4.39017C6.53649 4.91082 6.53649 5.75498 7.05719 6.27563L8.78105 7.99935H1.33333C0.596954 7.99935 0 8.59626 0 9.33258C0 10.0689 0.596954 10.6658 1.33333 10.6658H8.78105L7.05719 12.3895C6.53649 12.9102 6.53649 13.7543 7.05719 14.275C7.57789 14.7956 8.42211 14.7956 8.94281 14.275L12.9428 10.2753" fill="white"/>
</svg>
