<svg width="17" height="21" viewBox="0 0 17 21" fill="none" xmlns="http://www.w3.org/2000/svg">
<path fill-rule="evenodd" clip-rule="evenodd" d="M1 21C0.447715 21 0 20.5523 0 20V2.38743C0 1.83514 0.447715 1.38743 1 1.38743C1.10748 1.38743 1.21426 1.40475 1.31623 1.43874L5 2.66667V1C5 0.447715 5.44772 0 6 0C6.55228 0 7 0.447715 7 1V3.33333L8 3.66667V2C8 1.44772 8.44771 1 9 1C9.55229 1 10 1.44772 10 2V4.33333L11.3162 4.77208C11.7246 4.90819 12 5.29033 12 5.72076V7H16C16.5523 7 17 7.44772 17 8V20C17 20.5523 16.5523 21 16 21H11H1ZM15 13V15H12V13H15ZM12 17H15V19H12V17ZM12 11V9H15V11H12ZM10 19V6.44152L2 3.77485V19H10ZM4 8C4 8.55229 4.44772 9 5 9H7C7.55228 9 8 8.55229 8 8C8 7.44772 7.55228 7 7 7H5C4.44772 7 4 7.44772 4 8ZM5 13C4.44772 13 4 12.5523 4 12C4 11.4477 4.44772 11 5 11H7C7.55228 11 8 11.4477 8 12C8 12.5523 7.55228 13 7 13H5ZM4 16C4 16.5523 4.44772 17 5 17H7C7.55228 17 8 16.5523 8 16C8 15.4477 7.55228 15 7 15H5C4.44772 15 4 15.4477 4 16Z" fill="white"/>
</svg>
