<svg width="64" height="64" viewBox="0 0 64 64" fill="currentColor" xmlns="http://www.w3.org/2000/svg">
<g id="Collapse">
<path id="Collapse. icon" fill-rule="evenodd" clip-rule="evenodd" d="M31.9997 41.9748C32.0089 41.4232 31.8096 40.8916 31.4484 40.504L24.5315 32.8955L31.4484 25.4867C31.9778 24.8982 32.1325 24.0228 31.8412 23.263C31.5499 22.5031 30.8691 22.0061 30.1118 22.0003C29.6175 21.9912 29.141 22.201 28.7919 22.5814L20.5551 31.4428C20.1947 31.8236 19.9952 32.3493 20.0037 32.8955C19.97 33.4588 20.1655 34.0098 20.5384 34.4027L28.7919 43.4275C29.5381 44.1908 30.7021 44.1908 31.4484 43.4275C31.8007 43.0409 31.9987 42.519 31.9997 41.9748ZM43.9997 41.9748C44.0089 41.4232 43.8096 40.8916 43.4484 40.504L36.5315 32.8955L43.4484 25.4867C43.9778 24.8982 44.1325 24.0228 43.8412 23.263C43.5499 22.5031 42.8691 22.0061 42.1118 22.0003C41.6175 21.9912 41.141 22.201 40.7919 22.5814L32.5551 31.4428C32.1947 31.8236 31.9952 32.3493 32.0037 32.8955C31.97 33.4588 32.1655 34.0098 32.5384 34.4027L40.7919 43.4275C41.5381 44.1908 42.7021 44.1908 43.4484 43.4275C43.8007 43.0409 43.9987 42.519 43.9997 41.9748Z" fill="currentColor" fill-opacity="1"/>
</g>
</svg>
