<svg width="20" height="72" viewBox="0 0 20 72" fill="none" xmlns="http://www.w3.org/2000/svg">
<g id="Transfer. Icon" clip-path="url(#clip0_3_2120)">
<g id="Icon / Small / Origin">
<g id="Origin_Icon.20">
<path id="Fill" fill-rule="evenodd" clip-rule="evenodd" d="M10 15C12.7614 15 15 12.7614 15 10C15 7.23858 12.7614 5 10 5C7.23858 5 5 7.23858 5 10C5 12.7614 7.23858 15 10 15ZM10 13C8.34315 13 7 11.6569 7 10C7 8.34315 8.34315 7 10 7C11.6569 7 13 8.34315 13 10C13 11.6569 11.6569 13 10 13Z" fill="#48D9A4"/>
</g>
</g>
<g id="Arrow.Dotted" clip-path="url(#clip1_3_2120)">
<mask id="mask0_3_2120" style="mask-type:luminance" maskUnits="userSpaceOnUse" x="7" y="25" width="6" height="30">
<rect id="Rectangle" x="7" y="25" width="6" height="30" fill="white"/>
</mask>
<g mask="url(#mask0_3_2120)">
</g>
<g id="Arrow.Dotted_2" clip-path="url(#clip2_3_2120)">
<g id="Dots">
<circle id="Oval" cx="10" cy="35" r="1" fill="#48D9A4"/>
<circle id="Oval_2" cx="10" cy="31" r="1" fill="#48D9A4"/>
<circle id="Oval_3" cx="10" cy="27" r="1" fill="#48D9A4"/>
<circle id="Oval_4" cx="10" cy="39" r="1" fill="#48D9A4"/>
</g>
<path id="Arrow" fill-rule="evenodd" clip-rule="evenodd" d="M10 46.5L12.5 42H7.5L10 46.5Z" fill="#48D9A4"/>
</g>
</g>
<g id="Icon / Small / Origin_2">
<g id="Origin_Icon.20_2">
<path id="Fill_2" fill-rule="evenodd" clip-rule="evenodd" d="M10 67C12.7614 67 15 64.7614 15 62C15 59.2386 12.7614 57 10 57C7.23858 57 5 59.2386 5 62C5 64.7614 7.23858 67 10 67ZM10 65C8.34315 65 7 63.6569 7 62C7 60.3431 8.34315 59 10 59C11.6569 59 13 60.3431 13 62C13 63.6569 11.6569 65 10 65Z" fill="#48D9A4"/>
</g>
</g>
</g>
<defs>
<clipPath id="clip0_3_2120">
<rect width="20" height="72" fill="white"/>
</clipPath>
<clipPath id="clip1_3_2120">
<rect width="6" height="30" fill="white" transform="translate(7 25)"/>
</clipPath>
<clipPath id="clip2_3_2120">
<rect width="6" height="21" fill="white" transform="translate(7 26)"/>
</clipPath>
</defs>
</svg>
