<svg width="32" height="36" viewBox="0 0 32 36" fill="none" xmlns="http://www.w3.org/2000/svg">
<path id="power off.icon" fill-rule="evenodd" clip-rule="evenodd" d="M16.0183 0C14.9138 0 14.0183 0.89543 14.0183 2V14C14.0183 15.1046 14.9138 16 16.0183 16C17.1229 16 18.0183 15.1046 18.0183 14V2C18.0183 0.89543 17.1229 0 16.0183 0ZM20.9636 6.29257C20.3716 6.65234 20.0135 7.28785 20.0183 7.97004C20.0168 8.70312 20.4335 9.37566 21.0983 9.71288C26.2006 12.0166 28.9873 17.4782 27.8044 22.8562C26.6214 28.2342 21.7857 32.0886 16.1673 32.1317C10.5488 32.1747 5.65202 28.395 4.38327 23.0357C3.11452 17.6765 5.8135 12.1728 10.8783 9.79121C11.5738 9.49964 12.0231 8.82829 12.0183 8.08754V7.67631C12.0223 7.08219 11.7236 6.52523 11.2218 6.19115C10.72 5.85707 10.0812 5.78981 9.51833 6.0118C2.64807 8.99321 -1.17727 16.2542 0.324057 23.4638C1.82538 30.6734 8.24874 35.8884 15.7627 35.9982C23.2767 36.108 29.8562 31.083 31.5766 23.9205C33.297 16.758 29.6947 9.38846 22.9183 6.20763C22.2961 5.90061 21.5556 5.93279 20.9636 6.29257Z" fill="#2D3B4E" fill-opacity="0.5"/>
</svg>
