<svg width="30" height="36" viewBox="0 0 30 36" fill="none" xmlns="http://www.w3.org/2000/svg">
<path id="profile.icon" fill-rule="evenodd" clip-rule="evenodd" d="M6.00033 9C6.00033 13.9706 10.0298 18 15.0003 18C19.9709 18 24.0003 13.9706 24.0003 9C24.0003 4.02944 19.9709 0 15.0003 0C10.0298 0 6.00033 4.02944 6.00033 9ZM20.0003 9C20.0003 11.7614 17.7618 14 15.0003 14C12.2389 14 10.0003 11.7614 10.0003 9C10.0003 6.23858 12.2389 4 15.0003 4C17.7618 4 20.0003 6.23858 20.0003 9ZM2.00028 36C0.79127 36 -0.141291 35.0538 0.017696 33.9884C1.37768 24.8752 6.47038 20 15 20C23.5296 20 28.6223 24.8752 29.9823 33.9884C30.1413 35.0538 29.2087 36 27.9997 36H2.00028ZM4 32C5.4828 26.5248 9.07375 24 15 24C20.9263 24 24.5172 26.5248 26 32H4Z" fill="#2D3B4E" fill-opacity="0.5"/>
</svg>
