<svg width="20" height="20" viewBox="0 0 20 20" fill="currentColor" xmlns="http://www.w3.org/2000/svg">
<path fill-rule="evenodd" clip-rule="evenodd" d="M4.55556 8.44444H15.4444V6.88889H4.55556V8.44444ZM4.55556 15.4444H15.4444V10H4.55556V15.4444ZM13.8887 5.34568H16.0278C16.5649 5.34568 17 5.78075 17 6.3179V16.0278C17 16.5649 16.5649 17 16.0278 17H3.97222C3.43507 17 3 16.5649 3 16.0278V6.3179C3 5.78075 3.43507 5.34568 3.97222 5.34568H6.10978V3.72917C6.10978 3.32667 6.43645 3 6.83895 3C7.24145 3 7.56812 3.32667 7.56812 3.72917V5.34568H12.4304V3.72917C12.4304 3.32667 12.757 3 13.1595 3C13.562 3 13.8887 3.32667 13.8887 3.72917V5.34568Z" fill="currentColor" fill-opacity="1"/>
</svg>
